<svg width="41" height="42" viewBox="0 0 41 42" fill="none" xmlns="http://www.w3.org/2000/svg">
<path fill-rule="evenodd" clip-rule="evenodd" d="M17.8751 0.0166802C15.8281 0.196414 13.8187 0.620371 12.6245 1.12438C12.5582 1.15238 12.306 1.26003 12.0641 1.36377L11.6244 1.55213L11.34 1.43689C10.5845 1.13079 9.36749 0.729336 8.77714 0.591592C7.4485 0.281571 7.22913 0.254755 6.01612 0.25397C4.81384 0.253185 4.67231 0.271891 3.87371 0.538745C1.20805 1.42904 0.0648987 4.15317 1.05592 7.2539C1.26051 7.89409 1.99553 9.50646 2.38142 10.1612C2.69354 10.6909 2.69353 10.6568 2.37985 11.2083C1.25056 13.1936 0.659694 14.897 0.224226 17.423C-0.0750687 19.1592 -0.0746762 22.5207 0.225011 24.318C0.741189 27.4144 1.14291 28.7639 1.46274 28.4758C1.49426 28.4474 1.7916 28.2809 2.12346 28.1057C2.45546 27.9306 2.92376 27.68 3.16406 27.5488C3.71974 27.2454 3.69855 27.2323 3.9395 28.0282C5.00182 31.5364 7.26013 34.5432 10.4218 36.6587C11.6844 37.5034 11.6997 37.5013 11.4457 36.5161C11.1992 35.5602 10.9844 34.3501 10.881 33.335L10.7958 32.4998L10.2278 31.9168C7.91667 29.5448 6.55925 25.9019 6.55925 22.0713C6.55925 21.8492 6.5442 21.6525 6.52576 21.634C6.46859 21.577 4.93393 22.1847 4.29753 22.5163C4.00007 22.6714 3.99444 22.6351 3.99444 20.6035C3.99458 17.8069 4.26588 16.368 5.20928 14.1582C5.53735 13.3898 5.49066 13.4049 6.20226 13.8384C7.92713 14.8892 9.49699 15.3831 11.6589 15.5554C12.6773 15.6365 12.8659 15.7014 13.2519 16.1031C13.9151 16.7934 14.3663 18.267 14.552 20.35C14.7641 22.7273 15.6877 23.8192 17.9657 24.3851L18.2975 24.4676V24.853V25.2384L17.6065 25.466C13.6585 26.7659 11.4226 25.4923 10.9298 21.6625C10.876 21.2449 10.7931 21.2569 10.4541 21.7319C8.73279 24.144 9.22216 27.4115 11.5383 28.9718L11.8401 29.175L11.8458 30.9786C11.8514 32.7718 11.8753 33.0857 12.117 34.5626C12.5243 37.052 13.6575 39.8087 14.9201 41.3822C15.4278 42.0148 15.5935 42.138 15.5618 41.859C15.1566 38.296 15.123 34.4525 15.4669 31.0321C15.517 30.5342 15.5727 30.0667 15.5909 29.9932C15.6298 29.8357 15.6452 29.8304 16.4267 29.7022C17.2734 29.5632 19.5028 28.9382 19.746 28.7717C20.0556 28.5594 20.2928 28.5684 20.9309 28.8163C22.0407 29.2473 23.4542 29.6247 24.5016 29.7695C24.9029 29.8249 24.9394 29.8829 25.018 30.5901C25.3812 33.8534 25.3936 37.8019 25.0509 41.0356C24.9358 42.1226 24.9373 42.1284 25.2682 41.7813C27.4051 39.5391 28.8163 34.8781 28.6871 30.489C28.6675 29.8251 28.6711 29.2547 28.6949 29.2214C28.7188 29.1882 28.934 29.014 29.1734 28.8344C31.3711 27.1838 31.7536 24.0031 30.0342 21.6756C29.7103 21.2371 29.6813 21.2585 29.5216 22.0503C28.7736 25.7597 26.6997 26.7789 22.7032 25.4015L22.2204 25.2351V24.8496V24.4641L22.6428 24.3582C23.5434 24.1321 24.0652 23.8849 24.6289 23.417C25.4166 22.7631 25.8398 21.9002 25.9386 20.7463C26.1528 18.2437 26.5373 16.9162 27.2812 16.109C27.6638 15.6939 27.8345 15.6339 28.8593 15.5541C31.0203 15.3857 32.8307 14.8095 34.427 13.7821C35.0037 13.4109 34.9906 13.4063 35.2877 14.0836C36.2782 16.3422 36.7249 18.9387 36.5572 21.4619C36.4723 22.7406 36.5347 22.6524 35.9165 22.3667C35.1906 22.0314 34.3964 21.7162 34.1702 21.6738L33.9779 21.6377L33.9379 22.6092C33.7787 26.4684 32.5708 29.5645 30.3172 31.8897L29.7199 32.5061L29.6397 33.3518C29.543 34.3717 29.3704 35.3687 29.1216 36.343C28.834 37.4682 28.8274 37.4591 29.5995 36.9878C33.0726 34.868 35.7034 31.3917 36.7358 27.5582C36.8124 27.2733 36.8505 27.2697 37.2779 27.507C38.037 27.9285 39.1967 28.5275 39.2538 28.5275C39.4388 28.5275 39.9919 26.3062 40.2907 24.3633C40.4713 23.1886 40.5067 22.5989 40.5056 20.7724C40.5044 18.6921 40.4405 17.9821 40.1111 16.397C40.0732 16.2144 40.0195 15.9565 39.9918 15.8237C39.7329 14.5814 38.9419 12.6014 38.1593 11.237C37.823 10.6507 37.824 10.7112 38.1411 10.1707C38.2838 9.92741 38.4644 9.5924 38.5423 9.42653C38.6201 9.26053 38.8026 8.87046 38.9477 8.55965C40.7772 4.64109 39.6841 1.37292 36.2176 0.396292C35.6385 0.233172 33.6829 0.193797 32.993 0.331279C32.7772 0.374316 32.4513 0.439067 32.2687 0.475171C31.5679 0.613699 30.3317 0.990172 29.4499 1.33394L28.8941 1.55056L28.3635 1.31811C27.2758 0.841833 25.7499 0.419446 24.4231 0.227416C24.1742 0.191443 23.7668 0.132055 23.5179 0.0955587C23.0975 0.0338162 18.4235 -0.0314581 17.8751 0.0166802ZM21.7979 3.72777C24.6961 3.93118 26.8718 4.55371 27.833 5.45447C27.8994 5.51674 28.0808 5.65841 28.2364 5.76933L28.5191 5.97104L29.3633 5.54238C32.1182 4.14375 34.9734 3.60756 35.7551 4.34206C36.3914 4.93973 35.812 6.80365 34.4186 8.64193C32.9291 10.6067 31.1435 11.5581 28.5873 11.7489C24.8358 12.029 23.1238 13.9702 22.3061 18.8714C21.9723 20.8722 21.8165 21.0396 20.2891 21.0398C18.7111 21.0399 18.5548 20.879 18.2342 18.9255C17.4326 14.041 15.6817 12.0219 12.015 11.7535C8.83679 11.5209 6.79026 10.1506 5.15997 7.16325C3.53805 4.19163 4.89285 3.29584 9.0054 4.62056C9.78111 4.8704 11.6342 5.7089 11.8371 5.90171C11.9387 5.99851 12.0426 5.9611 12.3668 5.71047C13.3359 4.96171 13.3921 4.92547 13.9825 4.66974C15.6924 3.92896 18.9941 3.53103 21.7979 3.72777ZM16.316 35.0252C16.2664 35.0749 16.2752 37.4605 16.3278 38.2417L16.3664 38.8128L16.5775 38.8853C16.6938 38.9252 17.0332 38.9885 17.3319 39.0262C17.6307 39.0639 18.0568 39.1205 18.2789 39.1522C18.5012 39.1837 19.3921 39.2096 20.2589 39.2096C21.1258 39.2096 22.0167 39.1837 22.2388 39.1522C22.4611 39.1205 22.8873 39.0639 23.1859 39.0262C23.4847 38.9885 23.8241 38.9251 23.9403 38.8852L24.1516 38.8126L24.1968 38.2416C24.2934 37.0226 24.2276 35.0144 24.0913 35.0216C24.0248 35.0251 23.5632 35.0978 23.0653 35.1831C20.8966 35.5547 19.0286 35.522 16.8366 35.074C16.3305 34.9705 16.3674 34.9739 16.316 35.0252Z" fill="white"/>
</svg>
