<svg width="20" height="12" viewBox="0 0 20 12" fill="none" xmlns="http://www.w3.org/2000/svg">
<path d="M0.561204 11.4414C0.916677 11.7992 1.39754 12 1.89876 12C2.39999 12 2.88085 11.7992 3.23632 11.4414L10.0474 4.64086L16.7637 11.4414C17.1192 11.7992 17.6 12 18.1012 12C18.6025 12 19.0833 11.7992 19.4388 11.4414C19.6166 11.2628 19.7578 11.0503 19.8541 10.8162C19.9504 10.5821 20 10.331 20 10.0774C20 9.82383 19.9504 9.57274 19.8541 9.33864C19.7578 9.10454 19.6166 8.89207 19.4388 8.71349L11.3945 0.568242C11.2181 0.388185 11.0083 0.245271 10.7771 0.147742C10.5459 0.0502125 10.2979 -7.92076e-07 10.0474 -8.13971e-07C9.79697 -8.35867e-07 9.54899 0.0502124 9.3178 0.147741C9.0866 0.245271 8.87676 0.388185 8.70039 0.568242L0.561204 8.71348C0.383379 8.89207 0.242235 9.10454 0.145914 9.33864C0.0495934 9.57273 4.90114e-07 9.82383 4.67944e-07 10.0774C4.45773e-07 10.331 0.0495934 10.5821 0.145914 10.8162C0.242235 11.0503 0.383378 11.2628 0.561204 11.4414Z" fill="white"/>
</svg>
