<svg width="30" height="33" viewBox="0 0 30 33" fill="none" xmlns="http://www.w3.org/2000/svg">
<path d="M15 27C15.2967 27 15.5867 26.912 15.8334 26.7472C16.08 26.5824 16.2723 26.3481 16.3858 26.074C16.4994 25.7999 16.5291 25.4983 16.4712 25.2074C16.4133 24.9164 16.2704 24.6491 16.0607 24.4393C15.8509 24.2296 15.5836 24.0867 15.2926 24.0288C15.0017 23.9709 14.7001 24.0006 14.426 24.1142C14.1519 24.2277 13.9176 24.42 13.7528 24.6666C13.588 24.9133 13.5 25.2033 13.5 25.5C13.5 25.8978 13.658 26.2794 13.9393 26.5607C14.2206 26.842 14.6022 27 15 27ZM22.5 27C22.7967 27 23.0867 26.912 23.3334 26.7472C23.58 26.5824 23.7723 26.3481 23.8858 26.074C23.9994 25.7999 24.0291 25.4983 23.9712 25.2074C23.9133 24.9164 23.7704 24.6491 23.5607 24.4393C23.3509 24.2296 23.0836 24.0867 22.7926 24.0288C22.5017 23.9709 22.2001 24.0006 21.926 24.1142C21.6519 24.2277 21.4176 24.42 21.2528 24.6666C21.088 24.9133 21 25.2033 21 25.5C21 25.8978 21.158 26.2794 21.4393 26.5607C21.7206 26.842 22.1022 27 22.5 27ZM22.5 21C22.7967 21 23.0867 20.912 23.3334 20.7472C23.58 20.5824 23.7723 20.3481 23.8858 20.074C23.9994 19.7999 24.0291 19.4983 23.9712 19.2074C23.9133 18.9164 23.7704 18.6491 23.5607 18.4393C23.3509 18.2296 23.0836 18.0867 22.7926 18.0288C22.5017 17.9709 22.2001 18.0006 21.926 18.1142C21.6519 18.2277 21.4176 18.42 21.2528 18.6666C21.088 18.9133 21 19.2033 21 19.5C21 19.8978 21.158 20.2794 21.4393 20.5607C21.7206 20.842 22.1022 21 22.5 21ZM15 21C15.2967 21 15.5867 20.912 15.8334 20.7472C16.08 20.5824 16.2723 20.3481 16.3858 20.074C16.4994 19.7999 16.5291 19.4983 16.4712 19.2074C16.4133 18.9164 16.2704 18.6491 16.0607 18.4393C15.8509 18.2296 15.5836 18.0867 15.2926 18.0288C15.0017 17.9709 14.7001 18.0006 14.426 18.1142C14.1519 18.2277 13.9176 18.42 13.7528 18.6666C13.588 18.9133 13.5 19.2033 13.5 19.5C13.5 19.8978 13.658 20.2794 13.9393 20.5607C14.2206 20.842 14.6022 21 15 21ZM25.5 3H24V1.5C24 1.10218 23.842 0.720644 23.5607 0.43934C23.2794 0.158035 22.8978 0 22.5 0C22.1022 0 21.7206 0.158035 21.4393 0.43934C21.158 0.720644 21 1.10218 21 1.5V3H9V1.5C9 1.10218 8.84196 0.720644 8.56066 0.43934C8.27936 0.158035 7.89782 0 7.5 0C7.10218 0 6.72064 0.158035 6.43934 0.43934C6.15804 0.720644 6 1.10218 6 1.5V3H4.5C3.30653 3 2.16193 3.47411 1.31802 4.31802C0.474106 5.16193 0 6.30653 0 7.5V28.5C0 29.6935 0.474106 30.8381 1.31802 31.682C2.16193 32.5259 3.30653 33 4.5 33H25.5C26.6935 33 27.8381 32.5259 28.682 31.682C29.5259 30.8381 30 29.6935 30 28.5V7.5C30 6.30653 29.5259 5.16193 28.682 4.31802C27.8381 3.47411 26.6935 3 25.5 3ZM27 28.5C27 28.8978 26.842 29.2794 26.5607 29.5607C26.2794 29.842 25.8978 30 25.5 30H4.5C4.10218 30 3.72064 29.842 3.43934 29.5607C3.15804 29.2794 3 28.8978 3 28.5V15H27V28.5ZM27 12H3V7.5C3 7.10218 3.15804 6.72064 3.43934 6.43934C3.72064 6.15804 4.10218 6 4.5 6H6V7.5C6 7.89782 6.15804 8.27936 6.43934 8.56066C6.72064 8.84196 7.10218 9 7.5 9C7.89782 9 8.27936 8.84196 8.56066 8.56066C8.84196 8.27936 9 7.89782 9 7.5V6H21V7.5C21 7.89782 21.158 8.27936 21.4393 8.56066C21.7206 8.84196 22.1022 9 22.5 9C22.8978 9 23.2794 8.84196 23.5607 8.56066C23.842 8.27936 24 7.89782 24 7.5V6H25.5C25.8978 6 26.2794 6.15804 26.5607 6.43934C26.842 6.72064 27 7.10218 27 7.5V12ZM7.5 21C7.79667 21 8.08668 20.912 8.33336 20.7472C8.58003 20.5824 8.77229 20.3481 8.88582 20.074C8.99935 19.7999 9.02906 19.4983 8.97118 19.2074C8.9133 18.9164 8.77044 18.6491 8.56066 18.4393C8.35088 18.2296 8.08361 18.0867 7.79264 18.0288C7.50166 17.9709 7.20006 18.0006 6.92598 18.1142C6.65189 18.2277 6.41762 18.42 6.2528 18.6666C6.08797 18.9133 6 19.2033 6 19.5C6 19.8978 6.15804 20.2794 6.43934 20.5607C6.72064 20.842 7.10218 21 7.5 21ZM7.5 27C7.79667 27 8.08668 26.912 8.33336 26.7472C8.58003 26.5824 8.77229 26.3481 8.88582 26.074C8.99935 25.7999 9.02906 25.4983 8.97118 25.2074C8.9133 24.9164 8.77044 24.6491 8.56066 24.4393C8.35088 24.2296 8.08361 24.0867 7.79264 24.0288C7.50166 23.9709 7.20006 24.0006 6.92598 24.1142C6.65189 24.2277 6.41762 24.42 6.2528 24.6666C6.08797 24.9133 6 25.2033 6 25.5C6 25.8978 6.15804 26.2794 6.43934 26.5607C6.72064 26.842 7.10218 27 7.5 27Z" fill="white"/>
</svg>
