<svg width="29" height="29" viewBox="0 0 29 29" fill="none" xmlns="http://www.w3.org/2000/svg">
<path d="M11.3333 15.5833H1.41667C1.04094 15.5833 0.680609 15.7326 0.414932 15.9983C0.149255 16.2639 0 16.6243 0 17V26.9167C0 27.2924 0.149255 27.6527 0.414932 27.9184C0.680609 28.1841 1.04094 28.3333 1.41667 28.3333H11.3333C11.7091 28.3333 12.0694 28.1841 12.3351 27.9184C12.6007 27.6527 12.75 27.2924 12.75 26.9167V17C12.75 16.6243 12.6007 16.2639 12.3351 15.9983C12.0694 15.7326 11.7091 15.5833 11.3333 15.5833ZM9.91667 25.5H2.83333V18.4167H9.91667V25.5ZM26.9167 0H17C16.6243 0 16.2639 0.149255 15.9983 0.414932C15.7326 0.680609 15.5833 1.04094 15.5833 1.41667V11.3333C15.5833 11.7091 15.7326 12.0694 15.9983 12.3351C16.2639 12.6007 16.6243 12.75 17 12.75H26.9167C27.2924 12.75 27.6527 12.6007 27.9184 12.3351C28.1841 12.0694 28.3333 11.7091 28.3333 11.3333V1.41667C28.3333 1.04094 28.1841 0.680609 27.9184 0.414932C27.6527 0.149255 27.2924 0 26.9167 0V0ZM25.5 9.91667H18.4167V2.83333H25.5V9.91667ZM26.9167 15.5833H17C16.6243 15.5833 16.2639 15.7326 15.9983 15.9983C15.7326 16.2639 15.5833 16.6243 15.5833 17V26.9167C15.5833 27.2924 15.7326 27.6527 15.9983 27.9184C16.2639 28.1841 16.6243 28.3333 17 28.3333H26.9167C27.2924 28.3333 27.6527 28.1841 27.9184 27.9184C28.1841 27.6527 28.3333 27.2924 28.3333 26.9167V17C28.3333 16.6243 28.1841 16.2639 27.9184 15.9983C27.6527 15.7326 27.2924 15.5833 26.9167 15.5833ZM25.5 25.5H18.4167V18.4167H25.5V25.5ZM11.3333 0H1.41667C1.04094 0 0.680609 0.149255 0.414932 0.414932C0.149255 0.680609 0 1.04094 0 1.41667V11.3333C0 11.7091 0.149255 12.0694 0.414932 12.3351C0.680609 12.6007 1.04094 12.75 1.41667 12.75H11.3333C11.7091 12.75 12.0694 12.6007 12.3351 12.3351C12.6007 12.0694 12.75 11.7091 12.75 11.3333V1.41667C12.75 1.04094 12.6007 0.680609 12.3351 0.414932C12.0694 0.149255 11.7091 0 11.3333 0V0ZM9.91667 9.91667H2.83333V2.83333H9.91667V9.91667Z" fill="#46B474"/>
</svg>
