<svg width="29" height="29" viewBox="0 0 29 29" fill="none" xmlns="http://www.w3.org/2000/svg">
<path d="M13.1608 19.4225C13.359 19.6223 13.6121 19.7585 13.888 19.8139C14.1639 19.8692 14.4501 19.8412 14.7099 19.7333C14.9698 19.6254 15.1917 19.4425 15.3472 19.208C15.5028 18.9735 15.585 18.6981 15.5833 18.4167C15.5781 18.0416 15.4314 17.6823 15.1725 17.4108C14.9733 17.2143 14.7203 17.0811 14.4455 17.0282C14.1707 16.9752 13.8863 17.0048 13.6283 17.1133C13.4544 17.1808 13.2956 17.2819 13.1608 17.4108C12.902 17.6823 12.7552 18.0416 12.75 18.4167C12.7489 18.6031 12.7847 18.7879 12.8552 18.9605C12.9257 19.1331 13.0295 19.2901 13.1608 19.4225ZM25.3725 19.1392H18.955C18.5793 19.1392 18.2189 19.2884 17.9533 19.5541C17.6876 19.8198 17.5383 20.1801 17.5383 20.5558C17.5383 20.9316 17.6876 21.2919 17.9533 21.5576C18.2189 21.8232 18.5793 21.9725 18.955 21.9725H22.355C20.7923 23.6055 18.7771 24.734 16.5681 25.213C14.3592 25.6919 12.0575 25.4994 9.95885 24.6603C7.86015 23.8211 6.06031 22.3736 4.79059 20.5037C3.52086 18.6338 2.83925 16.4269 2.83333 14.1667C2.83333 13.7909 2.68408 13.4306 2.4184 13.1649C2.15272 12.8993 1.79239 12.75 1.41667 12.75C1.04094 12.75 0.680609 12.8993 0.414932 13.1649C0.149255 13.4306 0 13.7909 0 14.1667C0.00748943 16.9331 0.824813 19.6369 2.3511 21.9442C3.8774 24.2515 6.04586 26.0615 8.58889 27.1507C11.1319 28.24 13.9382 28.5608 16.6614 28.0736C19.3847 27.5864 21.9057 26.3125 23.9133 24.4092V26.9167C23.9133 27.2924 24.0626 27.6527 24.3283 27.9184C24.5939 28.1841 24.9543 28.3333 25.33 28.3333C25.7057 28.3333 26.0661 28.1841 26.3317 27.9184C26.5974 27.6527 26.7467 27.2924 26.7467 26.9167V20.5417C26.7432 20.1756 26.5981 19.8252 26.342 19.5637C26.0858 19.3023 25.7384 19.1501 25.3725 19.1392V19.1392ZM14.1667 0C10.5349 0.0103589 7.04578 1.41513 4.42 3.92417V1.41667C4.42 1.04094 4.27074 0.680609 4.00507 0.414932C3.73939 0.149255 3.37906 0 3.00333 0C2.62761 0 2.26728 0.149255 2.0016 0.414932C1.73592 0.680609 1.58667 1.04094 1.58667 1.41667V7.79167C1.58667 8.16739 1.73592 8.52772 2.0016 8.7934C2.26728 9.05908 2.62761 9.20833 3.00333 9.20833H9.37833C9.75406 9.20833 10.1144 9.05908 10.3801 8.7934C10.6457 8.52772 10.795 8.16739 10.795 7.79167C10.795 7.41594 10.6457 7.05561 10.3801 6.78993C10.1144 6.52426 9.75406 6.375 9.37833 6.375H5.97833C7.54016 4.74282 9.55413 3.61463 11.7617 3.13524C13.9693 2.65585 16.2698 2.84714 18.3679 3.68456C20.4661 4.52197 22.266 5.9673 23.5368 7.83502C24.8076 9.70274 25.4913 11.9076 25.5 14.1667C25.5 14.5424 25.6493 14.9027 25.9149 15.1684C26.1806 15.4341 26.5409 15.5833 26.9167 15.5833C27.2924 15.5833 27.6527 15.4341 27.9184 15.1684C28.1841 14.9027 28.3333 14.5424 28.3333 14.1667C28.3333 12.3063 27.9669 10.4641 27.255 8.74532C26.543 7.02654 25.4995 5.46482 24.184 4.14932C22.8685 2.83382 21.3068 1.79032 19.588 1.07837C17.8692 0.366432 16.0271 0 14.1667 0V0ZM14.1667 15.5833C14.5424 15.5833 14.9027 15.4341 15.1684 15.1684C15.4341 14.9027 15.5833 14.5424 15.5833 14.1667V9.91667C15.5833 9.54094 15.4341 9.18061 15.1684 8.91493C14.9027 8.64926 14.5424 8.5 14.1667 8.5C13.7909 8.5 13.4306 8.64926 13.1649 8.91493C12.8993 9.18061 12.75 9.54094 12.75 9.91667V14.1667C12.75 14.5424 12.8993 14.9027 13.1649 15.1684C13.4306 15.4341 13.7909 15.5833 14.1667 15.5833Z" fill="#46B474"/>
</svg>
