<svg width="20" height="12" viewBox="0 0 20 12" fill="none" xmlns="http://www.w3.org/2000/svg">
<path d="M19.4388 0.558626C19.0833 0.200829 18.6025 0 18.1012 0C17.6 0 17.1192 0.200829 16.7637 0.558626L9.95257 7.35914L3.23632 0.558626C2.88085 0.200829 2.39999 0 1.89876 0C1.39753 0 0.916675 0.200829 0.561202 0.558626C0.383376 0.737213 0.242232 0.949682 0.145911 1.18378C0.0495902 1.41788 0 1.66897 0 1.92257C0 2.17617 0.0495902 2.42726 0.145911 2.66136C0.242232 2.89546 0.383376 3.10793 0.561202 3.28651L8.60552 11.4318C8.7819 11.6118 8.99173 11.7547 9.22293 11.8523C9.45413 11.9498 9.70211 12 9.95257 12C10.203 12 10.451 11.9498 10.6822 11.8523C10.9134 11.7547 11.1232 11.6118 11.2996 11.4318L19.4388 3.28651C19.6166 3.10793 19.7578 2.89546 19.8541 2.66136C19.9504 2.42726 20 2.17617 20 1.92257C20 1.66897 19.9504 1.41788 19.8541 1.18378C19.7578 0.949682 19.6166 0.737213 19.4388 0.558626Z" fill="white"/>
</svg>
