<svg width="26" height="26" viewBox="0 0 26 26" fill="none" xmlns="http://www.w3.org/2000/svg">
<path d="M10.27 8.45C9.75 7.93 8.97 7.93 8.45 8.45C7.93 8.97 7.93 9.75 8.45 10.27L15.86 17.68C16.12 17.94 16.38 18.07 16.77 18.07C17.16 18.07 17.42 17.94 17.68 17.68C18.2 17.16 18.2 16.38 17.68 15.86L10.27 8.45ZM8.45 15.73L2.6 21.58V19.5C2.6 18.72 2.08 18.2 1.3 18.2C0.52 18.2 0 18.72 0 19.5V24.7C0 25.48 0.52 26 1.3 26H6.5C7.28 26 7.8 25.48 7.8 24.7C7.8 23.92 7.28 23.4 6.5 23.4H4.42L10.27 17.55C10.79 17.03 10.79 16.25 10.27 15.73C9.75 15.21 8.97 15.21 8.45 15.73ZM24.7 0H19.5C18.72 0 18.2 0.52 18.2 1.3C18.2 2.08 18.72 2.6 19.5 2.6H21.58L15.73 8.45C15.21 8.97 15.21 9.75 15.73 10.27C16.25 10.79 17.03 10.79 17.55 10.27L23.4 4.42V6.5C23.4 7.28 23.92 7.8 24.7 7.8C25.48 7.8 26 7.28 26 6.5V1.3C26 0.52 25.48 0 24.7 0Z" fill="white"/>
</svg>
