<svg width="26" height="26" viewBox="0 0 26 26" fill="none" xmlns="http://www.w3.org/2000/svg">
<path d="M24.7 0H16.9C16.12 0 15.6 0.52 15.6 1.3C15.6 2.08 16.12 2.6 16.9 2.6H21.58L5.59 18.59C5.07 19.11 5.07 19.89 5.59 20.41C6.11 20.93 6.89 20.93 7.41 20.41L23.4 4.42V9.1C23.4 9.88 23.92 10.4 24.7 10.4C25.48 10.4 26 9.88 26 9.1V1.3C26 0.52 25.48 0 24.7 0ZM20.8 12.74C20.02 12.74 19.5 13.26 19.5 14.04V23.4H2.6V6.5H11.96C12.74 6.5 13.26 5.98 13.26 5.2C13.26 4.42 12.74 3.9 11.96 3.9H1.3C0.52 3.9 0 4.42 0 5.2V24.7C0 25.48 0.52 26 1.3 26H20.8C21.58 26 22.1 25.48 22.1 24.7V14.04C22.1 13.39 21.58 12.74 20.8 12.74Z" fill="white"/>
</svg>
