<svg width="28" height="28" viewBox="0 0 28 28" fill="none" xmlns="http://www.w3.org/2000/svg">
<path d="M13.006 18.606C12.9458 18.6725 12.8897 18.7427 12.838 18.816C12.785 18.894 12.7426 18.9788 12.712 19.068C12.6716 19.1474 12.6433 19.2323 12.628 19.32C12.6211 19.4132 12.6211 19.5068 12.628 19.6C12.6233 19.7836 12.6616 19.9658 12.74 20.132C12.8029 20.3057 12.9032 20.4635 13.0338 20.5942C13.1645 20.7248 13.3223 20.8251 13.496 20.888C13.6636 20.9621 13.8448 21.0003 14.028 21.0003C14.2112 21.0003 14.3924 20.9621 14.56 20.888C14.7337 20.8251 14.8915 20.7248 15.0222 20.5942C15.1528 20.4635 15.2531 20.3057 15.316 20.132C15.3782 19.9618 15.4067 19.7811 15.4 19.6C15.4011 19.4157 15.3658 19.2331 15.2961 19.0625C15.2264 18.892 15.1238 18.7368 14.994 18.606C14.8639 18.4748 14.709 18.3706 14.5384 18.2995C14.3678 18.2285 14.1848 18.1919 14 18.1919C13.8152 18.1919 13.6322 18.2285 13.4616 18.2995C13.291 18.3706 13.1362 18.4748 13.006 18.606ZM14 0C11.2311 0 8.52431 0.821085 6.22202 2.35942C3.91973 3.89776 2.12532 6.08426 1.06569 8.64243C0.00606598 11.2006 -0.271181 14.0155 0.269012 16.7313C0.809205 19.447 2.14258 21.9416 4.10051 23.8995C6.05845 25.8574 8.55301 27.1908 11.2687 27.731C13.9845 28.2712 16.7994 27.9939 19.3576 26.9343C21.9157 25.8747 24.1022 24.0803 25.6406 21.778C27.1789 19.4757 28 16.7689 28 14C28 12.1615 27.6379 10.341 26.9343 8.64243C26.2307 6.94387 25.1995 5.40052 23.8995 4.1005C22.5995 2.80048 21.0561 1.76925 19.3576 1.06569C17.659 0.362121 15.8385 0 14 0V0ZM14 25.2C11.7849 25.2 9.61945 24.5431 7.77762 23.3125C5.93579 22.0818 4.50026 20.3326 3.65256 18.286C2.80485 16.2395 2.58306 13.9876 3.01521 11.815C3.44737 9.6424 4.51406 7.64675 6.08041 6.0804C7.64676 4.51405 9.64241 3.44736 11.815 3.0152C13.9876 2.58305 16.2395 2.80485 18.2861 3.65255C20.3326 4.50025 22.0818 5.93578 23.3125 7.77761C24.5431 9.61944 25.2 11.7848 25.2 14C25.2 16.9704 24.02 19.8192 21.9196 21.9196C19.8192 24.02 16.9704 25.2 14 25.2V25.2ZM14 7C13.2623 6.99953 12.5375 7.19337 11.8985 7.56202C11.2595 7.93067 10.7289 8.46112 10.36 9.1C10.2587 9.25934 10.1907 9.43753 10.16 9.62384C10.1294 9.81016 10.1368 10.0007 10.1817 10.1841C10.2266 10.3675 10.3082 10.5399 10.4214 10.691C10.5347 10.8421 10.6774 10.9686 10.8409 11.0631C11.0043 11.1576 11.1852 11.2181 11.3727 11.2408C11.5601 11.2636 11.7502 11.2482 11.9316 11.1956C12.1129 11.143 12.2817 11.0543 12.4279 10.9347C12.574 10.8152 12.6945 10.6673 12.782 10.5C12.9054 10.2864 13.083 10.1091 13.2968 9.98617C13.5107 9.86324 13.7533 9.79902 14 9.8C14.3713 9.8 14.7274 9.9475 14.99 10.21C15.2525 10.4726 15.4 10.8287 15.4 11.2C15.4 11.5713 15.2525 11.9274 14.99 12.1899C14.7274 12.4525 14.3713 12.6 14 12.6C13.6287 12.6 13.2726 12.7475 13.0101 13.01C12.7475 13.2726 12.6 13.6287 12.6 14V15.4C12.6 15.7713 12.7475 16.1274 13.0101 16.3899C13.2726 16.6525 13.6287 16.8 14 16.8C14.3713 16.8 14.7274 16.6525 14.99 16.3899C15.2525 16.1274 15.4 15.7713 15.4 15.4V15.148C16.3259 14.812 17.1043 14.1613 17.5991 13.3096C18.0939 12.4579 18.2736 11.4594 18.1068 10.4886C17.94 9.51788 17.4373 8.63662 16.6866 7.99892C15.9359 7.36122 14.985 7.00764 14 7V7Z" fill="white"/>
</svg>
