<svg width="32" height="32" viewBox="0 0 32 32" fill="none" xmlns="http://www.w3.org/2000/svg">
<path d="M30.7586 28.2972L30.5788 28.4709L30.7549 28.2935L25.3514 22.9296C27.4558 20.2139 28.4697 16.8053 28.1877 13.3749C27.8996 9.86964 26.2805 6.60805 23.6632 4.26077C21.0459 1.91349 17.6293 0.658943 14.1161 0.755151C10.6028 0.851359 7.25999 2.291 4.77487 4.77801C2.28976 7.26501 0.851277 10.6103 0.755147 14.1261C0.659016 17.6418 1.91254 21.0608 4.25803 23.6801C6.60352 26.2994 9.8627 27.9198 13.3654 28.2082C16.7936 28.4904 20.1999 27.4756 22.9136 25.3693L28.2725 30.7322C28.2726 30.7324 28.2727 30.7325 28.2729 30.7326C28.4354 30.8965 28.6287 31.0266 28.8417 31.1154C29.0548 31.2042 29.2835 31.25 29.5144 31.25C29.7453 31.25 29.974 31.2042 30.1871 31.1154C30.4003 31.0265 30.5937 30.8963 30.7563 30.7322L30.7586 30.7299C31.0738 30.4035 31.25 29.9674 31.25 29.5136C31.25 29.0597 31.0738 28.6236 30.7586 28.2972ZM14.5233 24.7853C12.4973 24.7853 10.5168 24.1841 8.83226 23.0576C7.14768 21.9312 5.83468 20.3301 5.05934 18.4568C4.28398 16.5835 4.08112 14.5222 4.47639 12.5335C4.87166 10.5449 5.84732 8.71817 7.27995 7.28445C8.71257 5.85073 10.5378 4.87438 12.5249 4.47883C14.5119 4.08328 16.5716 4.28629 18.4434 5.06219C20.3151 5.8381 21.915 7.15206 23.0406 8.83795C24.1663 10.5238 24.7671 12.5059 24.7671 14.5336C24.7671 17.2526 23.6878 19.8602 21.7667 21.7827C19.8456 23.7053 17.2401 24.7853 14.5233 24.7853Z" fill="white" stroke="white" stroke-width="0.5"/>
</svg>
