<svg width="26" height="29" viewBox="0 0 26 29" fill="none" xmlns="http://www.w3.org/2000/svg">
<path d="M21.667 9.91667H18.8337C17.9837 9.91667 17.417 10.4833 17.417 11.3333C17.417 12.1833 17.9837 12.75 18.8337 12.75H21.667C22.517 12.75 23.0837 13.3167 23.0837 14.1667V24.0833C23.0837 24.9333 22.517 25.5 21.667 25.5H4.66699C3.81699 25.5 3.25033 24.9333 3.25033 24.0833V14.1667C3.25033 13.3167 3.81699 12.75 4.66699 12.75H7.50033C8.35033 12.75 8.91699 12.1833 8.91699 11.3333C8.91699 10.4833 8.35033 9.91667 7.50033 9.91667H4.66699C2.25866 9.91667 0.416992 11.7583 0.416992 14.1667V24.0833C0.416992 26.4917 2.25866 28.3333 4.66699 28.3333H21.667C24.0753 28.3333 25.917 26.4917 25.917 24.0833V14.1667C25.917 11.7583 24.0753 9.91667 21.667 9.91667ZM9.90866 6.65833L11.7503 4.81667V21.25C11.7503 22.1 12.317 22.6667 13.167 22.6667C14.017 22.6667 14.5837 22.1 14.5837 21.25V4.81667L16.4253 6.65833C16.7087 6.94167 16.992 7.08333 17.417 7.08333C17.842 7.08333 18.1253 6.94167 18.4087 6.65833C18.9753 6.09167 18.9753 5.24167 18.4087 4.675L14.1587 0.425C13.592 -0.141667 12.742 -0.141667 12.1753 0.425L7.92533 4.675C7.35866 5.24167 7.35866 6.09167 7.92533 6.65833C8.49199 7.225 9.34199 7.225 9.90866 6.65833Z" fill="white"/>
</svg>
