<svg width="29" height="30" viewBox="0 0 29 30" fill="none" xmlns="http://www.w3.org/2000/svg">
<path d="M27.9225 12.5035L16.83 1.41101C16.6437 1.22364 16.4087 1.0921 16.1516 1.03125C15.8945 0.970396 15.6255 0.98266 15.375 1.06666C15.1245 1.15065 14.9025 1.30303 14.734 1.50657C14.5655 1.71012 14.4573 1.95672 14.4217 2.21851L13.3875 9.50018L10.5542 12.3335L10.0867 12.0643C9.78164 11.916 9.43353 11.8821 9.1056 11.9687C8.77767 12.0552 8.49168 12.2566 8.2996 12.5361C8.10753 12.8157 8.02212 13.1548 8.05889 13.492C8.09566 13.8292 8.25218 14.142 8.5 14.3735L6.87083 16.031L6.40333 15.7618C6.09907 15.6221 5.75516 15.5947 5.43259 15.6844C5.11002 15.7741 4.82965 15.9751 4.6412 16.2519C4.45275 16.5286 4.3684 16.8631 4.40311 17.1961C4.43783 17.5292 4.58936 17.8391 4.83083 18.071L3.17333 19.7143L2.72 19.4168C2.55831 19.3232 2.37969 19.2624 2.19442 19.2381C2.00915 19.2137 1.82089 19.2263 1.6405 19.275C1.4601 19.3237 1.29112 19.4077 1.14329 19.522C0.995469 19.6363 0.871717 19.7787 0.779167 19.941C0.619175 20.2328 0.566983 20.5715 0.631741 20.8979C0.696498 21.2243 0.874072 21.5174 1.13333 21.726L0.410833 22.4485C0.279646 22.5815 0.178237 22.7409 0.113333 22.916C0.0407418 23.0863 0.00223832 23.2692 0 23.4543V27.9168C0 28.2926 0.149255 28.6529 0.414932 28.9186C0.680609 29.1843 1.04094 29.3335 1.41667 29.3335H5.85083C6.03596 29.3313 6.21885 29.2928 6.38917 29.2202C6.56433 29.1553 6.72369 29.0539 6.85667 28.9227L9.265 26.5002L9.7325 26.7694C9.89335 26.8636 10.0712 26.9252 10.2559 26.9506C10.4406 26.9759 10.6285 26.9646 10.8088 26.9172C10.9891 26.8699 11.1583 26.7874 11.3066 26.6745C11.455 26.5616 11.5796 26.4205 11.6733 26.2593C11.8387 25.9677 11.8953 25.6269 11.8331 25.2975C11.7708 24.968 11.5937 24.6714 11.3333 24.4602L12.9908 22.8168L13.4583 23.086C13.6701 23.206 13.9091 23.2694 14.1525 23.2702C14.4237 23.2457 14.6821 23.1437 14.8967 22.9762C15.1114 22.8087 15.2733 22.5829 15.363 22.3258C15.4526 22.0688 15.4663 21.7913 15.4024 21.5266C15.3385 21.262 15.1996 21.0213 15.0025 20.8335L16.66 19.1902L17.1275 19.4593C17.3392 19.5793 17.5783 19.6428 17.8217 19.6435C18.111 19.6384 18.3918 19.5447 18.6263 19.3752C18.8608 19.2057 19.0377 18.9685 19.1334 18.6954C19.229 18.4223 19.2388 18.1265 19.1613 17.8477C19.0838 17.5689 18.9228 17.3206 18.7 17.136L19.8192 16.0168L27.115 14.9827C27.3772 14.9454 27.6237 14.8354 27.8265 14.6651C28.0294 14.4948 28.1804 14.2711 28.2625 14.0193C28.3596 13.761 28.3792 13.48 28.3188 13.2107C28.2584 12.9414 28.1207 12.6956 27.9225 12.5035V12.5035ZM5.27 26.5002H2.83333V24.0635L3.64083 23.256L6.72917 25.0835L5.27 26.5002ZM8.7975 22.9585L5.66667 21.1877L7.28167 19.5727L10.3558 21.3435L8.7975 22.9585ZM12.495 19.2752L9.40667 17.4902L11.0358 15.8752L14.1667 17.646L12.495 19.2752ZM16.1925 15.5777L13.1042 13.7502L14.7192 12.1352L17.1558 14.5718L16.1925 15.5777ZM19.6633 13.1127L16.2208 9.67018L16.83 5.42018L23.9133 12.5035L19.6633 13.1127Z" fill="white"/>
</svg>
