<svg width="29" height="26" viewBox="0 0 29 26" fill="none" xmlns="http://www.w3.org/2000/svg">
<path d="M24.0833 6.08317H22.6667V4.6665C22.6667 3.53933 22.2189 2.45833 21.4219 1.6613C20.6248 0.864271 19.5438 0.416504 18.4167 0.416504H4.25C3.12283 0.416504 2.04183 0.864271 1.2448 1.6613C0.447767 2.45833 0 3.53933 0 4.6665V4.6665V21.6665C0 22.7937 0.447767 23.8747 1.2448 24.6717C2.04183 25.4687 3.12283 25.9165 4.25 25.9165H24.0833C25.2105 25.9165 26.2915 25.4687 27.0885 24.6717C27.8856 23.8747 28.3333 22.7937 28.3333 21.6665V10.3332C28.3333 9.206 27.8856 8.125 27.0885 7.32797C26.2915 6.53094 25.2105 6.08317 24.0833 6.08317ZM4.25 3.24984H18.4167C18.7924 3.24984 19.1527 3.39909 19.4184 3.66477C19.6841 3.93045 19.8333 4.29078 19.8333 4.6665V6.08317H4.25C3.87428 6.08317 3.51394 5.93391 3.24827 5.66824C2.98259 5.40256 2.83333 5.04223 2.83333 4.6665C2.83333 4.29078 2.98259 3.93045 3.24827 3.66477C3.51394 3.39909 3.87428 3.24984 4.25 3.24984V3.24984ZM25.5 17.4165H24.0833C23.7076 17.4165 23.3473 17.2672 23.0816 17.0016C22.8159 16.7359 22.6667 16.3756 22.6667 15.9998C22.6667 15.6241 22.8159 15.2638 23.0816 14.9981C23.3473 14.7324 23.7076 14.5832 24.0833 14.5832H25.5V17.4165ZM25.5 11.7498H24.0833C22.9562 11.7498 21.8752 12.1976 21.0781 12.9946C20.2811 13.7917 19.8333 14.8727 19.8333 15.9998C19.8333 17.127 20.2811 18.208 21.0781 19.005C21.8752 19.8021 22.9562 20.2498 24.0833 20.2498H25.5V21.6665C25.5 22.0422 25.3507 22.4026 25.0851 22.6682C24.8194 22.9339 24.4591 23.0832 24.0833 23.0832H4.25C3.87428 23.0832 3.51394 22.9339 3.24827 22.6682C2.98259 22.4026 2.83333 22.0422 2.83333 21.6665V8.67567C3.28846 8.83578 3.76753 8.91722 4.25 8.9165H24.0833C24.4591 8.9165 24.8194 9.06576 25.0851 9.33144C25.3507 9.59711 25.5 9.95745 25.5 10.3332V11.7498Z" fill="white"/>
</svg>
